<svg xmlns="http://www.w3.org/2000/svg" xml:space="preserve" viewBox="0 0 72.48 74.26"><g fill="#009526"><path d="M53.96 22.75c-2.32-2.68-2.03-6.73.65-9.05s6.73-2.03 9.05.65c2.79 3.23 5.01 6.96 6.53 11.04 1.48 3.98 2.29 8.23 2.29 12.62 0 10.01-4.06 19.07-10.62 25.63S46.25 74.26 36.24 74.26 17.17 70.2 10.61 63.64 0 48.02 0 38.01c0-4.32.78-8.5 2.2-12.4 1.46-4 3.62-7.69 6.33-10.91 2.28-2.71 6.32-3.06 9.03-.78s3.06 6.32.78 9.03a23.366 23.366 0 0 0-4.07 7.04c-.9 2.47-1.39 5.17-1.39 8.02 0 6.45 2.62 12.3 6.84 16.53 4.23 4.23 10.07 6.84 16.52 6.84s12.3-2.62 16.52-6.84 6.85-10.07 6.85-16.53c0-2.91-.51-5.65-1.43-8.14-.98-2.62-2.41-5.03-4.22-7.12z" class="st1"/><path d="M42.68 25.63c0 3.55-2.88 6.44-6.44 6.44-3.55 0-6.44-2.88-6.44-6.44V6.44C29.8 2.89 32.68 0 36.24 0c3.55 0 6.44 2.88 6.44 6.44z" class="st1"/></g></svg>
